<svg xmlns="http://www.w3.org/2000/svg" xmlns:xlink="http://www.w3.org/1999/xlink" width="500" zoomAndPan="magnify" viewBox="0 0 375 374.999991" height="500" preserveAspectRatio="xMidYMid meet" version="1.0"><defs><g/><clipPath id="6507e1c8fe"><path d="M 82.519531 100.351562 L 183.769531 100.351562 L 183.769531 201.601562 L 82.519531 201.601562 Z M 82.519531 100.351562 " clip-rule="nonzero"/></clipPath><clipPath id="f198a240fd"><path d="M 175 142 L 183.769531 142 L 183.769531 201.601562 L 175 201.601562 Z M 175 142 " clip-rule="nonzero"/></clipPath><clipPath id="7410ef2739"><path d="M 159 156 L 168 156 L 168 201.601562 L 159 201.601562 Z M 159 156 " clip-rule="nonzero"/></clipPath><clipPath id="ed627aa4da"><path d="M 142 172 L 152 172 L 152 201.601562 L 142 201.601562 Z M 142 172 " clip-rule="nonzero"/></clipPath><clipPath id="a41da2faa3"><path d="M 126 184 L 135 184 L 135 201.601562 L 126 201.601562 Z M 126 184 " clip-rule="nonzero"/></clipPath><clipPath id="f7d1eef1f2"><path d="M 192.148438 100.351562 L 293.257812 100.351562 L 293.257812 201.601562 L 192.148438 201.601562 Z M 192.148438 100.351562 " clip-rule="nonzero"/></clipPath><clipPath id="e4b393af44"><path d="M 192.148438 142 L 201 142 L 201 201.601562 L 192.148438 201.601562 Z M 192.148438 142 " clip-rule="nonzero"/></clipPath><clipPath id="00f5f4aa84"><path d="M 208 156 L 217 156 L 217 201.601562 L 208 201.601562 Z M 208 156 " clip-rule="nonzero"/></clipPath><clipPath id="5e8ebd6957"><path d="M 224 172 L 234 172 L 234 201.601562 L 224 201.601562 Z M 224 172 " clip-rule="nonzero"/></clipPath><clipPath id="77eefce7ad"><path d="M 241 184 L 250 184 L 250 201.601562 L 241 201.601562 Z M 241 184 " clip-rule="nonzero"/></clipPath></defs><g clip-path="url(#6507e1c8fe)"><path fill="#004aad" d="M 183.769531 132.316406 L 183.769531 134.207031 L 175.582031 134.207031 L 175.582031 132.316406 C 175.582031 119.179688 164.941406 108.539062 151.800781 108.539062 C 138.773438 108.539062 128.164062 119.019531 128.023438 132.050781 L 127.875 145.707031 L 114.222656 145.855469 C 101.191406 145.996094 90.707031 156.601562 90.707031 169.632812 C 90.707031 182.769531 101.351562 193.410156 114.488281 193.410156 L 118.265625 193.410156 L 118.265625 201.597656 L 114.488281 201.597656 C 96.832031 201.597656 82.523438 187.289062 82.519531 169.632812 C 82.519531 155.84375 91.363281 143.609375 104.417969 139.28125 C 107.554688 138.242188 110.828125 137.703125 114.128906 137.664062 L 119.773438 137.601562 L 119.832031 131.960938 C 119.871094 128.660156 120.40625 125.394531 121.441406 122.261719 C 125.765625 109.199219 138.007812 100.34375 151.800781 100.34375 C 169.457031 100.34375 183.765625 114.65625 183.765625 132.3125 Z M 183.769531 132.316406 " fill-opacity="1" fill-rule="evenodd"/></g><g clip-path="url(#f198a240fd)"><path fill="#004aad" d="M 175.578125 142.394531 L 183.769531 142.394531 L 183.769531 201.601562 L 175.578125 201.601562 Z M 175.578125 142.394531 " fill-opacity="1" fill-rule="evenodd"/></g><g clip-path="url(#7410ef2739)"><path fill="#000000" d="M 159.207031 156.90625 L 167.394531 156.90625 L 167.394531 201.601562 L 159.207031 201.601562 Z M 159.207031 156.90625 " fill-opacity="1" fill-rule="evenodd"/></g><g clip-path="url(#ed627aa4da)"><path fill="#000000" d="M 142.828125 172.164062 L 151.015625 172.164062 L 151.015625 201.601562 L 142.828125 201.601562 Z M 142.828125 172.164062 " fill-opacity="1" fill-rule="evenodd"/></g><g clip-path="url(#a41da2faa3)"><path fill="#000000" d="M 126.453125 184.101562 L 134.644531 184.101562 L 134.644531 201.601562 L 126.453125 201.601562 Z M 126.453125 184.101562 " fill-opacity="1" fill-rule="evenodd"/></g><g fill="#000000" fill-opacity="1"><g transform="translate(62.566407, 233.642841)"><g><path d="M 25.984375 -22.359375 L 25.984375 0 L 20.546875 0 L 20.546875 -15.125 L 13.984375 -6.375 L 7.578125 -15.09375 L 7.578125 0 L 2.375 0 L 2.375 -22.359375 L 7.90625 -22.359375 L 14.1875 -13.640625 L 20.59375 -22.359375 Z M 25.984375 -22.359375 "/></g></g></g><g fill="#000000" fill-opacity="1"><g transform="translate(90.92063, 233.642841)"><g><path d="M 14.625 -9.59375 L 14.625 0 L 9.1875 0 L 9.1875 -9.6875 L 0.703125 -22.359375 L 7.375 -22.359375 L 12.4375 -13.875 L 17.03125 -22.359375 L 22.4375 -22.359375 Z M 14.625 -9.59375 "/></g></g></g><g fill="#000000" fill-opacity="1"><g transform="translate(114.113443, 233.642841)"><g><path d="M 2.375 -22.359375 L 11.359375 -22.359375 C 15.117188 -22.359375 17.90625 -21.425781 19.71875 -19.5625 C 21.53125 -17.695312 22.4375 -14.898438 22.4375 -11.171875 C 22.4375 -7.453125 21.53125 -4.660156 19.71875 -2.796875 C 17.90625 -0.929688 15.117188 0 11.359375 0 L 2.375 0 Z M 10.734375 -4.1875 C 12.765625 -4.1875 14.289062 -4.753906 15.3125 -5.890625 C 16.34375 -7.035156 16.859375 -8.796875 16.859375 -11.171875 C 16.859375 -13.578125 16.34375 -15.34375 15.3125 -16.46875 C 14.289062 -17.601562 12.765625 -18.171875 10.734375 -18.171875 L 7.8125 -18.171875 L 7.8125 -4.1875 Z M 10.734375 -4.1875 "/></g></g></g><g fill="#000000" fill-opacity="1"><g transform="translate(137.94305, 233.642841)"><g><path d="M 12.34375 0.46875 C 8.914062 0.46875 6.238281 -0.5 4.3125 -2.4375 C 2.394531 -4.382812 1.4375 -7.296875 1.4375 -11.171875 C 1.4375 -14.960938 2.378906 -17.847656 4.265625 -19.828125 C 6.160156 -21.804688 8.851562 -22.796875 12.34375 -22.796875 C 15.757812 -22.796875 18.429688 -21.828125 20.359375 -19.890625 C 22.296875 -17.960938 23.265625 -15.066406 23.265625 -11.203125 C 23.265625 -7.398438 22.320312 -4.503906 20.4375 -2.515625 C 18.550781 -0.523438 15.851562 0.46875 12.34375 0.46875 Z M 12.34375 -3.984375 C 14.101562 -3.984375 15.429688 -4.539062 16.328125 -5.65625 C 17.222656 -6.78125 17.671875 -8.628906 17.671875 -11.203125 C 17.671875 -13.773438 17.226562 -15.613281 16.34375 -16.71875 C 15.457031 -17.820312 14.125 -18.375 12.34375 -18.375 C 10.570312 -18.375 9.242188 -17.8125 8.359375 -16.6875 C 7.484375 -15.570312 7.046875 -13.71875 7.046875 -11.125 C 7.046875 -8.582031 7.484375 -6.753906 8.359375 -5.640625 C 9.242188 -4.535156 10.570312 -3.984375 12.34375 -3.984375 Z M 12.34375 -3.984375 "/></g></g></g><g fill="#000000" fill-opacity="1"><g transform="translate(162.644068, 233.642841)"><g><path d="M 7.078125 -18.171875 L 0.8125 -18.171875 L 0.8125 -22.359375 L 18.875 -22.359375 L 18.875 -18.171875 L 12.5 -18.171875 L 12.5 0 L 7.078125 0 Z M 7.078125 -18.171875 "/></g></g></g><g fill="#000000" fill-opacity="1"><g transform="translate(182.317742, 233.642841)"><g><path d="M 12.265625 0.4375 C 4.941406 0.4375 1.28125 -3.429688 1.28125 -11.171875 C 1.28125 -18.972656 4.941406 -22.875 12.265625 -22.875 C 14.523438 -22.875 16.894531 -22.320312 19.375 -21.21875 L 19.375 -16.5 C 17.226562 -17.925781 15.109375 -18.640625 13.015625 -18.640625 C 10.953125 -18.640625 9.410156 -18.0625 8.390625 -16.90625 C 7.378906 -15.757812 6.875 -13.847656 6.875 -11.171875 C 6.875 -8.484375 7.394531 -6.578125 8.4375 -5.453125 C 9.476562 -4.335938 11.082031 -3.78125 13.25 -3.78125 C 14.144531 -3.78125 15.113281 -3.945312 16.15625 -4.28125 C 17.207031 -4.625 18.28125 -5.15625 19.375 -5.875 L 19.375 -1.140625 C 18.457031 -0.671875 17.335938 -0.289062 16.015625 0 C 14.703125 0.289062 13.453125 0.4375 12.265625 0.4375 Z M 12.265625 0.4375 "/></g></g></g><g fill="#000000" fill-opacity="1"><g transform="translate(203.432593, 233.642841)"><g><path d="M 12.34375 0.46875 C 8.914062 0.46875 6.238281 -0.5 4.3125 -2.4375 C 2.394531 -4.382812 1.4375 -7.296875 1.4375 -11.171875 C 1.4375 -14.960938 2.378906 -17.847656 4.265625 -19.828125 C 6.160156 -21.804688 8.851562 -22.796875 12.34375 -22.796875 C 15.757812 -22.796875 18.429688 -21.828125 20.359375 -19.890625 C 22.296875 -17.960938 23.265625 -15.066406 23.265625 -11.203125 C 23.265625 -7.398438 22.320312 -4.503906 20.4375 -2.515625 C 18.550781 -0.523438 15.851562 0.46875 12.34375 0.46875 Z M 12.34375 -3.984375 C 14.101562 -3.984375 15.429688 -4.539062 16.328125 -5.65625 C 17.222656 -6.78125 17.671875 -8.628906 17.671875 -11.203125 C 17.671875 -13.773438 17.226562 -15.613281 16.34375 -16.71875 C 15.457031 -17.820312 14.125 -18.375 12.34375 -18.375 C 10.570312 -18.375 9.242188 -17.8125 8.359375 -16.6875 C 7.484375 -15.570312 7.046875 -13.71875 7.046875 -11.125 C 7.046875 -8.582031 7.484375 -6.753906 8.359375 -5.640625 C 9.242188 -4.535156 10.570312 -3.984375 12.34375 -3.984375 Z M 12.34375 -3.984375 "/></g></g></g><g fill="#000000" fill-opacity="1"><g transform="translate(228.13361, 233.642841)"><g><path d="M 25.984375 -22.359375 L 25.984375 0 L 20.546875 0 L 20.546875 -15.125 L 13.984375 -6.375 L 7.578125 -15.09375 L 7.578125 0 L 2.375 0 L 2.375 -22.359375 L 7.90625 -22.359375 L 14.1875 -13.640625 L 20.59375 -22.359375 Z M 25.984375 -22.359375 "/></g></g></g><g fill="#000000" fill-opacity="1"><g transform="translate(256.487834, 233.642841)"><g><path d="M 1.984375 -4.734375 L 6.84375 -4.734375 L 6.84375 0 L 1.984375 0 Z M 1.984375 -4.734375 "/></g></g></g><g fill="#000000" fill-opacity="1"><g transform="translate(265.302439, 233.642841)"><g><path d="M 12.671875 0.703125 C 9.210938 0.703125 6.628906 -0.03125 4.921875 -1.5 C 3.222656 -2.976562 2.375 -5.257812 2.375 -8.34375 L 2.375 -22.359375 L 8.046875 -22.359375 L 8.046875 -8.578125 C 8.046875 -6.859375 8.390625 -5.582031 9.078125 -4.75 C 9.773438 -3.925781 10.882812 -3.515625 12.40625 -3.515625 C 13.8125 -3.515625 14.894531 -3.9375 15.65625 -4.78125 C 16.414062 -5.632812 16.796875 -6.898438 16.796875 -8.578125 L 16.796875 -22.359375 L 21.96875 -22.359375 L 21.96875 -8.34375 C 21.96875 -5.332031 21.132812 -3.070312 19.46875 -1.5625 C 17.800781 -0.0507812 15.535156 0.703125 12.671875 0.703125 Z M 12.671875 0.703125 "/></g></g></g><g fill="#000000" fill-opacity="1"><g transform="translate(289.634797, 233.642841)"><g><path d="M 9.390625 -8.75 L 7.8125 -6.96875 L 7.8125 0 L 2.375 0 L 2.375 -22.359375 L 7.8125 -22.359375 L 7.8125 -13.046875 L 14.65625 -22.359375 L 21.5 -22.359375 L 13.109375 -12.90625 L 22.203125 0 L 15.390625 0 Z M 9.390625 -8.75 "/></g></g></g><g fill="#000000" fill-opacity="1"><g transform="translate(146.748569, 272.880889)"><g><path d="M 9.59375 -9.796875 L 6.34375 -9.796875 L 6.34375 -11.6875 C 6.34375 -12.070312 6.132812 -12.265625 5.71875 -12.265625 L 4.78125 -12.265625 C 4.375 -12.265625 4.171875 -12.070312 4.171875 -11.6875 L 4.171875 -2.796875 C 4.171875 -2.585938 4.21875 -2.441406 4.3125 -2.359375 C 4.40625 -2.273438 4.5625 -2.234375 4.78125 -2.234375 L 5.71875 -2.234375 C 5.945312 -2.234375 6.109375 -2.273438 6.203125 -2.359375 C 6.296875 -2.441406 6.34375 -2.585938 6.34375 -2.796875 L 6.34375 -5.625 L 5.203125 -5.625 L 5.203125 -7.796875 L 9.59375 -7.796875 L 9.59375 -2.5 C 9.59375 -0.832031 8.632812 0 6.71875 0 L 3.78125 0 C 1.863281 0 0.90625 -0.832031 0.90625 -2.5 L 0.90625 -11.984375 C 0.90625 -13.660156 1.863281 -14.5 3.78125 -14.5 L 6.71875 -14.5 C 8.632812 -14.5 9.59375 -13.660156 9.59375 -11.984375 Z M 9.59375 -9.796875 "/></g></g></g><g fill="#000000" fill-opacity="1"><g transform="translate(159.080775, 272.880889)"><g><path d="M 4.28125 -2.390625 L 8.9375 -2.390625 L 8.9375 0 L 1.03125 0 L 1.03125 -14.5 L 8.75 -14.5 L 8.75 -12.109375 L 4.28125 -12.109375 L 4.28125 -8.578125 L 8.09375 -8.578125 L 8.09375 -6.171875 L 4.28125 -6.171875 Z M 4.28125 -2.390625 "/></g></g></g><g fill="#000000" fill-opacity="1"><g transform="translate(170.341699, 272.880889)"><g><path d="M 8.6875 -14.5 L 8.6875 -12.109375 L 6.015625 -12.109375 L 6.015625 0 L 2.765625 0 L 2.765625 -12.109375 L 0.109375 -12.109375 L 0.109375 -14.5 Z M 8.6875 -14.5 "/></g></g></g><g fill="#000000" fill-opacity="1"><g transform="translate(181.078382, 272.880889)"><g/></g></g><g fill="#000000" fill-opacity="1"><g transform="translate(187.096904, 272.880889)"><g><path d="M 13.625 -14.5 L 16.875 -14.5 L 14.0625 0 L 10.171875 0 L 8.546875 -9.484375 L 6.9375 0 L 3.03125 0 L 0.234375 -14.5 L 3.609375 -14.5 L 4.96875 -3.671875 L 6.890625 -14.5 L 10.1875 -14.5 L 12.109375 -3.671875 Z M 13.625 -14.5 "/></g></g></g><g fill="#000000" fill-opacity="1"><g transform="translate(206.130264, 272.880889)"><g><path d="M 4.28125 -2.390625 L 8.9375 -2.390625 L 8.9375 0 L 1.03125 0 L 1.03125 -14.5 L 8.75 -14.5 L 8.75 -12.109375 L 4.28125 -12.109375 L 4.28125 -8.578125 L 8.09375 -8.578125 L 8.09375 -6.171875 L 4.28125 -6.171875 Z M 4.28125 -2.390625 "/></g></g></g><g fill="#000000" fill-opacity="1"><g transform="translate(217.391186, 272.880889)"><g><path d="M 6.71875 -8.984375 L 6.71875 -11.6875 C 6.71875 -12.070312 6.515625 -12.265625 6.109375 -12.265625 L 4.234375 -12.265625 L 4.234375 -8.40625 L 6.109375 -8.40625 C 6.515625 -8.40625 6.71875 -8.597656 6.71875 -8.984375 Z M 6.71875 -2.796875 L 6.71875 -5.625 C 6.71875 -5.820312 6.671875 -5.960938 6.578125 -6.046875 C 6.492188 -6.128906 6.335938 -6.171875 6.109375 -6.171875 L 4.234375 -6.171875 L 4.234375 -2.234375 L 6.109375 -2.234375 C 6.515625 -2.234375 6.71875 -2.421875 6.71875 -2.796875 Z M 1.03125 -14.5 L 7.046875 -14.5 C 8.972656 -14.5 9.9375 -13.660156 9.9375 -11.984375 L 9.9375 -9.4375 C 9.9375 -8.3125 9.59375 -7.601562 8.90625 -7.3125 C 9.59375 -7.0625 9.9375 -6.410156 9.9375 -5.359375 L 9.9375 -2.53125 C 9.9375 -0.84375 8.972656 0 7.046875 0 L 1.03125 0 Z M 1.03125 -14.5 "/></g></g></g><g fill="#004aad" fill-opacity="1"><g transform="translate(150.381381, 304.380887)"><g/></g></g><g fill="#004aad" fill-opacity="1"><g transform="translate(156.3931, 304.380887)"><g><path d="M 4.265625 -5.421875 L 4.265625 0 L 1.03125 0 L 1.03125 -14.5 L 7 -14.5 C 8.914062 -14.5 9.875 -13.660156 9.875 -11.984375 L 9.875 -7.9375 C 9.875 -6.59375 9.265625 -5.785156 8.046875 -5.515625 L 10.59375 0 L 7.109375 0 L 4.828125 -5.421875 Z M 4.265625 -12.109375 L 4.265625 -7.734375 L 6.015625 -7.734375 C 6.234375 -7.734375 6.382812 -7.773438 6.46875 -7.859375 C 6.5625 -7.941406 6.609375 -8.082031 6.609375 -8.28125 L 6.609375 -11.53125 C 6.609375 -11.914062 6.410156 -12.109375 6.015625 -12.109375 Z M 4.265625 -12.109375 "/></g></g></g><g fill="#004aad" fill-opacity="1"><g transform="translate(169.021604, 304.380887)"><g><path d="M 4.28125 -2.390625 L 8.9375 -2.390625 L 8.9375 0 L 1.03125 0 L 1.03125 -14.5 L 8.75 -14.5 L 8.75 -12.109375 L 4.28125 -12.109375 L 4.28125 -8.578125 L 8.09375 -8.578125 L 8.09375 -6.171875 L 4.28125 -6.171875 Z M 4.28125 -2.390625 "/></g></g></g><g fill="#004aad" fill-opacity="1"><g transform="translate(180.282528, 304.380887)"><g><path d="M 7.640625 0 L 7.140625 -2.625 L 3.828125 -2.625 L 3.328125 0 L 0.109375 0 L 3.390625 -14.5 L 7.546875 -14.5 L 10.921875 0 Z M 4.28125 -5 L 6.65625 -5 L 5.46875 -11.125 Z M 4.28125 -5 "/></g></g></g><g fill="#004aad" fill-opacity="1"><g transform="translate(193.230141, 304.380887)"><g><path d="M 1.1875 -14.5 L 7.234375 -14.5 C 9.160156 -14.5 10.125 -13.660156 10.125 -11.984375 L 10.125 -2.53125 C 10.125 -0.84375 9.160156 0 7.234375 0 L 1.1875 0 Z M 6.859375 -2.796875 L 6.859375 -11.6875 C 6.859375 -12.070312 6.65625 -12.265625 6.25 -12.265625 L 4.453125 -12.265625 L 4.453125 -2.234375 L 6.25 -2.234375 C 6.65625 -2.234375 6.859375 -2.421875 6.859375 -2.796875 Z M 6.859375 -2.796875 "/></g></g></g><g fill="#004aad" fill-opacity="1"><g transform="translate(206.223333, 304.380887)"><g><path d="M 6.953125 0 L 3.6875 0 L 3.6875 -4.703125 L 0.046875 -14.5 L 3.375 -14.5 L 5.3125 -7.6875 L 7.109375 -14.5 L 10.4375 -14.5 L 6.953125 -4.671875 Z M 6.953125 0 "/></g></g></g><g fill="#004aad" fill-opacity="1"><g transform="translate(218.623916, 304.380887)"><g><path d="M 1.34375 0 L 1.34375 -3.375 L 4.65625 -3.375 L 4.65625 0 Z M 1.140625 -14.5 L 4.859375 -14.5 L 4.3125 -5.0625 L 1.703125 -5.0625 Z M 1.140625 -14.5 "/></g></g></g><g clip-path="url(#f7d1eef1f2)"><path fill="#004aad" d="M 192.148438 132.316406 L 192.148438 134.207031 L 200.335938 134.207031 L 200.335938 132.316406 C 200.335938 119.179688 210.976562 108.539062 224.113281 108.539062 C 237.144531 108.539062 247.75 119.019531 247.890625 132.050781 L 248.042969 145.707031 L 261.695312 145.855469 C 274.726562 145.996094 285.210938 156.601562 285.210938 169.632812 C 285.210938 182.769531 274.566406 193.410156 261.429688 193.410156 L 257.648438 193.410156 L 257.648438 201.597656 L 261.429688 201.597656 C 279.085938 201.597656 293.394531 187.289062 293.398438 169.632812 C 293.398438 155.84375 284.554688 143.609375 271.5 139.28125 C 268.363281 138.242188 265.089844 137.703125 261.785156 137.664062 L 256.144531 137.601562 L 256.085938 131.960938 C 256.046875 128.660156 255.511719 125.394531 254.472656 122.261719 C 250.148438 109.199219 237.910156 100.34375 224.117188 100.34375 C 206.460938 100.34375 192.152344 114.65625 192.152344 132.3125 Z M 192.148438 132.316406 " fill-opacity="1" fill-rule="evenodd"/></g><g clip-path="url(#e4b393af44)"><path fill="#004aad" d="M 200.335938 142.394531 L 192.148438 142.394531 L 192.148438 201.601562 L 200.335938 201.601562 Z M 200.335938 142.394531 " fill-opacity="1" fill-rule="evenodd"/></g><g clip-path="url(#00f5f4aa84)"><path fill="#000000" d="M 216.710938 156.90625 L 208.523438 156.90625 L 208.523438 201.601562 L 216.710938 201.601562 Z M 216.710938 156.90625 " fill-opacity="1" fill-rule="evenodd"/></g><g clip-path="url(#5e8ebd6957)"><path fill="#000000" d="M 233.085938 172.164062 L 224.902344 172.164062 L 224.902344 201.601562 L 233.085938 201.601562 Z M 233.085938 172.164062 " fill-opacity="1" fill-rule="evenodd"/></g><g clip-path="url(#77eefce7ad)"><path fill="#000000" d="M 249.464844 184.101562 L 241.273438 184.101562 L 241.273438 201.601562 L 249.464844 201.601562 Z M 249.464844 184.101562 " fill-opacity="1" fill-rule="evenodd"/></g></svg>